<svg width="100" height="100" viewBox="0 0 100 100" fill="none" xmlns="http://www.w3.org/2000/svg">
<g clip-path="url(#clip0_0_386)">
<rect opacity="0.0229128" x="0.5" y="0.5" width="99" height="99" stroke="#2B2B2B"/>
<path fill-rule="evenodd" clip-rule="evenodd" d="M50.5777 35.0602C59.2094 35.0669 66.2006 42.0674 66.194 50.6968C66.1873 59.3262 59.1849 66.3156 50.5532 66.3089C41.9215 66.3022 34.9303 59.3017 34.937 50.6723C34.9436 42.0429 41.946 35.0535 50.5777 35.0602Z" fill="#F9C900"/>
<path fill-rule="evenodd" clip-rule="evenodd" d="M46.851 71.5247C46.851 71.7117 46.8265 71.903 46.7754 72.0922L44.1823 81.7385C43.8684 82.9067 42.6665 83.601 41.498 83.2872C40.3294 82.9735 39.635 81.7719 39.951 80.6014L42.5441 70.9551C42.8579 69.7868 44.0599 69.0948 45.2284 69.4086C46.2078 69.6711 46.851 70.5568 46.851 71.5247Z" fill="#F9C900"/>
<path fill-rule="evenodd" clip-rule="evenodd" d="M35.9944 67.5643C35.9944 68.154 35.7563 68.7437 35.2888 69.1754L27.9415 75.9423C27.0511 76.7634 25.6645 76.7055 24.8454 75.8154C24.024 74.9276 24.0797 73.5413 24.97 72.7201L32.3174 65.951C33.2077 65.1322 34.5944 65.19 35.4135 66.0779C35.803 66.5007 35.9944 67.0325 35.9944 67.5643Z" fill="#F9C900"/>
<path fill-rule="evenodd" clip-rule="evenodd" d="M30.0564 56.9285C30.0564 57.9031 29.3998 58.791 28.4138 59.0469L18.7404 61.5458C17.5674 61.8484 16.3722 61.1452 16.0695 59.9726C15.7668 58.8021 16.4701 57.6071 17.6431 57.3045L27.3165 54.8034C28.4872 54.5007 29.6825 55.2061 29.9852 56.3766C30.0342 56.5613 30.0564 56.746 30.0564 56.9285Z" fill="#F9C900"/>
<path fill-rule="evenodd" clip-rule="evenodd" d="M30.364 44.656C30.364 44.8362 30.3417 45.0187 30.295 45.2011C29.9923 46.3738 28.797 47.0792 27.6262 46.7766L17.9507 44.2866C16.7777 43.9862 16.0721 42.7912 16.3748 41.6208C16.6753 40.4481 17.8705 39.7427 19.0435 40.0453L28.7191 42.5353C29.7074 42.789 30.364 43.6791 30.364 44.656Z" fill="#F9C900"/>
<path fill-rule="evenodd" clip-rule="evenodd" d="M35.9404 33.9892C35.9404 34.5366 35.7356 35.0862 35.3238 35.5112C34.4825 36.379 33.0936 36.4035 32.2255 35.5602L25.0473 28.613C24.1792 27.7719 24.1547 26.3834 24.9983 25.5155C25.8396 24.6455 27.2263 24.6232 28.0966 25.4644L35.2726 32.4137C35.7178 32.8432 35.9404 33.4151 35.9404 33.9892Z" fill="#F9C900"/>
<path fill-rule="evenodd" clip-rule="evenodd" d="M46.1198 27.8985C46.1198 28.8776 45.4565 29.7699 44.4638 30.0191C43.2908 30.3151 42.1 29.603 41.804 28.4303L39.3623 18.744C39.0662 17.5691 39.7785 16.3808 40.9515 16.0848C42.1245 15.7889 43.3153 16.501 43.6113 17.6736L46.053 27.36C46.0975 27.5402 46.1198 27.7205 46.1198 27.8985Z" fill="#F9C900"/>
<path fill-rule="evenodd" clip-rule="evenodd" d="M60.789 18.9262C60.789 19.1109 60.7645 19.2978 60.7155 19.4825L58.1759 29.1444C57.8687 30.3126 56.6713 31.0136 55.5005 30.7043C54.3297 30.3972 53.6308 29.1978 53.938 28.0296L56.4776 18.3699C56.7848 17.1995 57.9845 16.5007 59.1553 16.8078C60.1391 17.0659 60.789 17.9538 60.789 18.9262Z" fill="#F9C900"/>
<path fill-rule="evenodd" clip-rule="evenodd" d="M76.6779 27.267C76.6779 27.8789 76.422 28.4864 75.9256 28.9181L68.3868 35.4758C67.4742 36.268 66.0898 36.1723 65.2952 35.26C64.5006 34.3476 64.5963 32.9635 65.5111 32.1691L73.0477 25.6137C73.9625 24.8193 75.3447 24.9149 76.1393 25.8273C76.5021 26.2434 76.6779 26.7574 76.6779 27.267Z" fill="#F9C900"/>
<path fill-rule="evenodd" clip-rule="evenodd" d="M84.4471 41.8865C84.4471 42.8478 83.8083 43.7289 82.8357 43.996L73.2001 46.6395C72.0338 46.9599 70.8274 46.2724 70.5069 45.1063C70.1864 43.9381 70.8742 42.7343 72.0405 42.4138L81.676 39.7703C82.8423 39.4521 84.0487 40.1374 84.3692 41.3035C84.4227 41.4993 84.4471 41.6951 84.4471 41.8865Z" fill="#F9C900"/>
<path fill-rule="evenodd" clip-rule="evenodd" d="M84.2815 58.9652C84.2815 59.1454 84.2593 59.3279 84.2125 59.5103C83.9098 60.683 82.7146 61.3884 81.5438 61.0858L71.8682 58.5958C70.6952 58.2954 69.9896 57.1004 70.2923 55.93C70.5928 54.7573 71.7881 54.0519 72.9611 54.3545L82.6367 56.8445C83.6249 57.0982 84.2815 57.9883 84.2815 58.9652Z" fill="#F9C900"/>
<path fill-rule="evenodd" clip-rule="evenodd" d="M76.099 74.0063C76.099 74.5737 75.8786 75.1434 75.4401 75.5706C74.5743 76.4162 73.1876 76.4006 72.3418 75.535L65.3572 68.3943C64.5114 67.5287 64.5248 66.1424 65.3906 65.2968C66.2565 64.4512 67.6431 64.4668 68.4889 65.3302L75.4735 72.4731C75.892 72.9004 76.099 73.4522 76.099 74.0063Z" fill="#F9C900"/>
<path fill-rule="evenodd" clip-rule="evenodd" d="M61.0141 82.0847C61.0141 83.0504 60.3686 83.9338 59.3914 84.1964C58.2229 84.5124 57.021 83.8204 56.7071 82.6521L54.1074 73.008C53.7913 71.8398 54.4835 70.636 55.6521 70.3222C56.8206 70.0062 58.0226 70.6983 58.3386 71.8665L60.9384 81.5128C60.9896 81.7042 61.0141 81.8955 61.0141 82.0847Z" fill="#F9C900"/>
</g>
<defs>
<clipPath id="clip0_0_386">
<rect width="100" height="100" fill="white"/>
</clipPath>
</defs>
</svg>
