<svg width="100" height="100" viewBox="0 0 100 100" fill="none" xmlns="http://www.w3.org/2000/svg">
<g clip-path="url(#clip0_0_147)">
<rect opacity="0.0229128" x="0.5" y="0.5" width="99" height="99" stroke="#2B2B2B"/>
<g clip-path="url(#clip1_0_147)">
<path fill-rule="evenodd" clip-rule="evenodd" d="M37.6246 17.3916C34.3056 30.5995 29.2795 69.6198 81.1519 68.6681C82.5564 68.6423 83.4078 70.1827 82.5932 71.3213C79.0473 76.2732 69.4014 85.8097 48.4546 84.0545C48.4546 84.0545 18.3588 80.3572 17.0602 46.667C17.0602 46.667 15.8501 27.0354 34.9084 15.4043C36.2978 14.5579 38.02 15.8211 37.6246 17.3916" fill="#C6DAE5"/>
<path fill-rule="evenodd" clip-rule="evenodd" d="M29.2229 57.9952C25.5841 58.427 22.2824 55.8425 21.8502 52.2269C21.4159 48.6091 24.0132 45.3264 27.652 44.8968C31.2908 44.4649 34.5903 47.0472 35.0247 50.665C35.459 54.2828 32.8595 57.5634 29.2229 57.9952Z" fill="#9BB4C6"/>
<path fill-rule="evenodd" clip-rule="evenodd" d="M43.9367 69.9661C44.2652 72.701 42.301 75.1801 39.5503 75.5067C36.7996 75.8332 34.306 73.8804 33.9776 71.1456C33.6491 68.4107 35.6133 65.9315 38.364 65.605C41.1147 65.2784 43.6083 67.2313 43.9367 69.9661" fill="#9BB4C6"/>
<path fill-rule="evenodd" clip-rule="evenodd" d="M53.8399 69.6258C54.1122 71.9074 52.4743 73.9762 50.1817 74.2469C47.8869 74.5198 45.8061 72.8913 45.5338 70.6098C45.2594 68.3304 46.8973 66.2594 49.192 65.9887C51.4847 65.7159 53.5655 67.3443 53.8399 69.6258" fill="#9BB4C6"/>
<path fill-rule="evenodd" clip-rule="evenodd" d="M70.2962 73.908C70.5015 75.6267 69.2677 77.1864 67.539 77.3926C65.8104 77.5967 64.2417 76.3679 64.0342 74.6492C63.8289 72.9305 65.0628 71.3709 66.7914 71.1668C68.5222 70.9605 70.091 72.1894 70.2962 73.908" fill="#9BB4C6"/>
<path fill-rule="evenodd" clip-rule="evenodd" d="M33.62 37.0033C33.8252 38.7219 32.5914 40.2816 30.8628 40.4879C29.1341 40.6919 27.5654 39.4631 27.3579 37.7444C27.1527 36.0258 28.3865 34.4661 30.1151 34.262C31.8459 34.0557 33.4147 35.2846 33.62 37.0033" fill="#9BB4C6"/>
<path fill-rule="evenodd" clip-rule="evenodd" d="M59.3986 31.8383C61.0732 31.8383 61.782 37.1275 62.6204 37.9116C63.4588 38.6958 68.8478 37.4067 69.4269 39.0825C70.006 40.756 65.1399 42.9881 64.6105 44.0043C64.0811 45.0205 67.0738 49.7962 65.5958 50.8016C64.1178 51.8071 60.5503 47.7703 59.3986 47.7703C58.2469 47.7703 54.6168 51.9145 53.2014 50.8016C51.7861 49.6888 54.714 45.0205 54.1846 44.0043C53.6574 42.9881 48.7826 40.7367 49.3703 39.0825C49.958 37.4261 55.3385 38.6958 56.1769 37.9116C57.0152 37.1275 57.724 31.8383 59.3986 31.8383" fill="#F9C900"/>
<path fill-rule="evenodd" clip-rule="evenodd" d="M69.4747 16.6713C70.581 16.6713 71.0477 20.1623 71.6009 20.6801C72.1541 21.1978 75.7086 20.3449 76.0911 21.4513C76.4735 22.5556 73.2647 24.0293 72.9147 24.6996C72.5646 25.3699 74.5396 28.5215 73.5651 29.1853C72.5884 29.8492 70.2353 27.1852 69.4747 27.1852C68.7141 27.1852 66.3199 29.9201 65.3842 29.1853C64.4508 28.4506 66.3847 25.3699 66.0347 24.6996C65.6846 24.0293 62.4693 22.5427 62.8583 21.4513C63.245 20.36 66.7953 21.1978 67.3484 20.6801C67.9016 20.1623 68.3705 16.6713 69.4747 16.6713" fill="#F9C900"/>
</g>
</g>
<defs>
<clipPath id="clip0_0_147">
<rect width="100" height="100" fill="white"/>
</clipPath>
<clipPath id="clip1_0_147">
<rect width="66" height="70" fill="white" transform="translate(17 15)"/>
</clipPath>
</defs>
</svg>
