<svg width="100" height="100" viewBox="0 0 100 100" fill="none" xmlns="http://www.w3.org/2000/svg">
<g clip-path="url(#clip0_0_325)">
<rect opacity="0.0229128" x="0.5" y="0.5" width="99" height="99" stroke="#2B2B2B"/>
<g clip-path="url(#clip1_0_325)">
<path fill-rule="evenodd" clip-rule="evenodd" d="M33.4941 34.3313C41.8558 34.3376 48.6281 41.077 48.6217 49.3849C48.6154 57.6928 41.8324 64.4216 33.4707 64.4152C25.109 64.4089 18.3366 57.6695 18.343 49.3616C18.3494 41.0537 25.1324 34.325 33.4941 34.3313Z" fill="#F9C900"/>
<path fill-rule="evenodd" clip-rule="evenodd" d="M29.8843 69.4353C29.8843 69.6171 29.8609 69.7989 29.8119 69.9828L27.2992 79.2695C26.9949 80.3941 25.8311 81.06 24.6992 80.7577C23.5651 80.4554 22.8949 79.2991 23.1992 78.1744L25.7119 68.8878C26.0162 67.7631 27.18 67.0972 28.3119 67.3974C29.2609 67.6511 29.8843 68.5051 29.8843 69.4353Z" fill="#F9C900"/>
<path fill-rule="evenodd" clip-rule="evenodd" d="M19.3677 65.6227C19.3677 66.1914 19.1379 66.7579 18.6826 67.1722L11.5655 73.6896C10.7038 74.4781 9.36129 74.4232 8.56767 73.567C7.77193 72.7108 7.82725 71.3769 8.68895 70.5863L15.806 64.0711C16.6698 63.2825 18.0124 63.3354 18.806 64.1937C19.1826 64.5974 19.3677 65.1111 19.3677 65.6227Z" fill="#F9C900"/>
<mask id="mask0_0_325" style="mask-type:luminance" maskUnits="userSpaceOnUse" x="0" y="53" width="14" height="7">
<path fill-rule="evenodd" clip-rule="evenodd" d="M0 53.2717V59.8971H13.616V53.2717L0 53.2717L0 53.2717Z" fill="white"/>
</mask>
<g mask="url(#mask0_0_325)">
<path fill-rule="evenodd" clip-rule="evenodd" d="M13.616 55.3837C13.616 56.3223 12.9798 57.1764 12.0245 57.4216L2.65426 59.8294C1.52022 60.1212 0.360642 59.4426 0.0670254 58.3158C-0.224464 57.1891 0.456387 56.037 1.59256 55.7452L10.9628 53.3395C12.0968 53.0478 13.2543 53.7243 13.5479 54.8531C13.5947 55.0307 13.616 55.2083 13.616 55.3837Z" fill="#F9C900"/>
</g>
<path fill-rule="evenodd" clip-rule="evenodd" d="M13.9139 43.5692C13.9139 43.7425 13.8926 43.918 13.8458 44.0955C13.5543 45.2223 12.3968 45.9009 11.2628 45.6112L1.88832 43.214C0.754282 42.9244 0.071303 41.7723 0.362792 40.6455C0.654282 39.5188 1.81173 38.8402 2.9479 39.1298L12.3202 41.5271C13.2777 41.7723 13.9139 42.6284 13.9139 43.5692Z" fill="#F9C900"/>
<path fill-rule="evenodd" clip-rule="evenodd" d="M19.3153 33.3003C19.3153 33.8288 19.1174 34.3573 18.7174 34.7653C17.9025 35.6024 16.5578 35.6236 15.7153 34.8139L8.76421 28.1232C7.92166 27.3135 7.90038 25.9796 8.71527 25.1425C9.53017 24.3054 10.8748 24.2842 11.7174 25.0939L18.6685 31.7825C19.1004 32.1968 19.3153 32.7486 19.3153 33.3003Z" fill="#F9C900"/>
<path fill-rule="evenodd" clip-rule="evenodd" d="M29.1759 27.4368C29.1759 28.3796 28.5334 29.2379 27.5717 29.4789C26.4355 29.7642 25.2802 29.0793 24.9951 27.9483L22.6291 18.6236C22.344 17.4926 23.0334 16.349 24.1696 16.0636C25.3057 15.7803 26.4611 16.4653 26.7462 17.5941L29.1121 26.9188C29.1547 27.0922 29.1759 27.2655 29.1759 27.4368Z" fill="#F9C900"/>
<path fill-rule="evenodd" clip-rule="evenodd" d="M43.3854 18.7993C43.3854 18.9769 43.362 19.1566 43.3152 19.3363L40.8556 28.6357C40.5577 29.7624 39.396 30.4346 38.262 30.1387C37.13 29.8427 36.4513 28.6885 36.7492 27.5639L39.2088 18.2624C39.5066 17.1378 40.6683 16.4634 41.8024 16.7594C42.7556 17.0088 43.3854 17.8629 43.3854 18.7993Z" fill="#F9C900"/>
<path fill-rule="evenodd" clip-rule="evenodd" d="M58.7764 26.829C58.7764 27.4167 58.5296 28.0023 58.0466 28.4188L50.7445 34.7311C49.8615 35.4942 48.519 35.4012 47.7509 34.5239C46.9807 33.6445 47.0743 32.3127 47.9594 31.5474L55.2615 25.2372C56.1445 24.472 57.4849 24.565 58.2552 25.4444C58.6062 25.8439 58.7764 26.3386 58.7764 26.829Z" fill="#F9C900"/>
<path fill-rule="evenodd" clip-rule="evenodd" d="M66.302 40.903C66.302 41.8289 65.6828 42.6766 64.7403 42.9345L55.4084 45.4776C54.2764 45.7863 53.1084 45.1267 52.7998 44.0021C52.4892 42.8774 53.153 41.719 54.285 41.4103L63.6169 38.8672C64.7488 38.5586 65.9147 39.2181 66.2254 40.3428C66.2764 40.5288 66.302 40.7169 66.302 40.903Z" fill="#F9C900"/>
<path fill-rule="evenodd" clip-rule="evenodd" d="M66.1415 57.3442C66.1415 57.5175 66.1202 57.693 66.0734 57.8706C65.7819 58.9973 64.6245 59.6759 63.4904 59.3863L54.116 56.989C52.9819 56.6994 52.2968 55.5494 52.5904 54.4206C52.8819 53.2938 54.0394 52.6152 55.1755 52.9048L64.5479 55.3021C65.5053 55.5473 66.1415 56.4035 66.1415 57.3442Z" fill="#F9C900"/>
<path fill-rule="evenodd" clip-rule="evenodd" d="M58.2155 71.8243C58.2155 72.3718 58.0027 72.9172 57.5772 73.3294C56.7389 74.1454 55.3942 74.1306 54.5751 73.2977L47.8091 66.4209C46.99 65.588 47.0049 64.2541 47.8432 63.4403C48.6815 62.6243 50.0261 62.6391 50.8453 63.472L57.6113 70.3487C58.0155 70.7588 58.2155 71.2915 58.2155 71.8243Z" fill="#F9C900"/>
<path fill-rule="evenodd" clip-rule="evenodd" d="M43.6032 79.6011C43.6032 80.5313 42.9798 81.3811 42.033 81.6348C40.9011 81.9371 39.7351 81.2712 39.4309 80.1465L36.9117 70.862C36.6075 69.7373 37.2777 68.581 38.4096 68.2766C39.5415 67.9743 40.7075 68.6402 41.0117 69.7648L43.5287 79.0494C43.5798 79.2333 43.6032 79.4193 43.6032 79.6011Z" fill="#F9C900"/>
<path fill-rule="evenodd" clip-rule="evenodd" d="M30.3928 57.5989C23.6247 57.5989 18.1162 63.1248 18.1162 69.9191C18.1162 76.7092 23.6247 82.2373 30.3928 82.2373H83.7694C92.2673 82.2373 99.1779 75.2992 99.1779 66.7714C99.1779 58.2437 92.2673 51.3056 83.7694 51.3056C82.1886 51.3056 80.6162 51.5509 79.1013 52.0307L78.1141 52.3457L77.7651 51.3648C74.5034 42.1606 65.7843 35.9772 56.0715 35.9772C44.1971 35.9772 34.3417 44.9066 33.146 56.747L33.0354 57.8441L31.946 57.7089C31.3417 57.6327 30.8481 57.5989 30.3928 57.5989Z" fill="#EDF3F9"/>
</g>
</g>
<defs>
<clipPath id="clip0_0_325">
<rect width="100" height="100" fill="white"/>
</clipPath>
<clipPath id="clip1_0_325">
<rect width="100" height="67" fill="white" transform="translate(0 16)"/>
</clipPath>
</defs>
</svg>
