<svg width="100" height="100" viewBox="0 0 100 100" fill="none" xmlns="http://www.w3.org/2000/svg">
<g clip-path="url(#clip0_0_104)">
<rect opacity="0.0229128" x="0.5" y="0.5" width="99" height="99" stroke="#2B2B2B"/>
<g clip-path="url(#clip1_0_104)">
<path fill-rule="evenodd" clip-rule="evenodd" d="M26.5277 14.3926C23.0971 28.2232 17.9021 69.083 71.5186 68.0864C72.9704 68.0594 73.8504 69.6724 73.0084 70.8647C69.3432 76.05 59.3731 86.0361 37.7219 84.1981C37.7219 84.1981 6.61417 80.3265 5.27186 45.0481C5.27186 45.0481 4.02112 24.4911 23.7203 12.3117C25.1564 11.4253 26.9365 12.7481 26.5277 14.3926Z" fill="#C6DAE5"/>
<path fill-rule="evenodd" clip-rule="evenodd" d="M23.8405 49.2344C24.2894 53.0227 21.6026 56.4579 17.8437 56.9101C14.0825 57.3622 10.6698 54.6559 10.2231 50.8698C9.77417 47.0815 12.4588 43.6441 16.2199 43.1942C19.9811 42.742 23.3916 45.446 23.8405 49.2344Z" fill="#9BB4C6"/>
<path fill-rule="evenodd" clip-rule="evenodd" d="M33.0522 69.4456C33.3917 72.3094 31.3614 74.9054 28.5182 75.2474C25.675 75.5893 23.0976 73.5444 22.7581 70.6806C22.4187 67.8169 24.4489 65.2208 27.2921 64.8789C30.1353 64.5369 32.7127 66.5818 33.0522 69.4456Z" fill="#9BB4C6"/>
<path fill-rule="evenodd" clip-rule="evenodd" d="M43.2883 69.0892C43.5698 71.4783 41.8768 73.6447 39.5071 73.9282C37.1351 74.2139 34.9843 72.5087 34.7029 70.1196C34.4193 67.7327 36.1122 65.5641 38.4842 65.2806C40.8539 64.9949 43.0047 66.7001 43.2883 69.0892Z" fill="#9BB4C6"/>
<path fill-rule="evenodd" clip-rule="evenodd" d="M60.298 73.5735C60.5102 75.3732 59.2349 77.0064 57.4481 77.2224C55.6613 77.4361 54.0398 76.1493 53.8254 74.3496C53.6133 72.5499 54.8886 70.9167 56.6753 70.703C58.4643 70.487 60.0858 71.7738 60.298 73.5735Z" fill="#9BB4C6"/>
<path fill-rule="evenodd" clip-rule="evenodd" d="M22.3885 34.9288C22.6006 36.7285 21.3253 38.3617 19.5386 38.5777C17.7518 38.7914 16.1303 37.5046 15.9159 35.705C15.7037 33.9053 16.979 32.272 18.7658 32.0583C20.5548 31.8424 22.1763 33.1291 22.3885 34.9288Z" fill="#9BB4C6"/>
<path fill-rule="evenodd" clip-rule="evenodd" d="M22.3727 60.7843C15.268 60.7843 9.4856 66.6648 9.4856 73.8951C9.4856 81.1208 15.268 87.0036 22.3727 87.0036H78.4036C87.3241 87.0036 94.5783 79.6204 94.5783 70.5454C94.5783 61.4705 87.3241 54.0872 78.4036 54.0872C76.7441 54.0872 75.0936 54.3482 73.5034 54.8588L72.4671 55.194L72.1008 54.1502C68.6769 44.3554 59.5241 37.7753 49.3284 37.7753C36.8634 37.7753 26.518 47.2776 25.2628 59.8777L25.1466 61.0453L24.0031 60.9013C23.3688 60.8203 22.8506 60.7843 22.3727 60.7843Z" fill="#EDF3F9"/>
</g>
</g>
<defs>
<clipPath id="clip0_0_104">
<rect width="100" height="100" fill="white"/>
</clipPath>
<clipPath id="clip1_0_104">
<rect width="90" height="76" fill="white" transform="translate(5 12)"/>
</clipPath>
</defs>
</svg>
