<svg width="100" height="100" viewBox="0 0 100 100" fill="none" xmlns="http://www.w3.org/2000/svg">
<g clip-path="url(#clip0_0_306)">
<rect opacity="0.0229128" x="0.5" y="0.5" width="98.0099" height="99" stroke="#2B2B2B"/>
<path fill-rule="evenodd" clip-rule="evenodd" d="M1 62.0883C1 70.3081 7.59159 77 15.6904 77H79.5619C89.7306 77 98 68.6012 98 58.2779C98 47.9546 89.7306 39.5558 79.5619 39.5558C77.6702 39.5558 75.7887 39.8526 73.976 40.4335L72.7946 40.8148L72.3771 39.6274C68.4741 28.4853 58.0406 21 46.4181 21C32.2089 21 20.4158 31.8095 18.9849 46.1428L18.8525 47.471L17.549 47.3072C16.8259 47.2151 16.2353 47.1741 15.6904 47.1741C7.59159 47.1741 1 53.8635 1 62.0883Z" fill="#EDF3F9"/>
</g>
<defs>
<clipPath id="clip0_0_306">
<rect width="100" height="100" fill="white"/>
</clipPath>
</defs>
</svg>
