<svg width="100" height="100" viewBox="0 0 100 100" fill="none" xmlns="http://www.w3.org/2000/svg">
<g clip-path="url(#clip0_0_213)">
<rect opacity="0.0229128" x="0.5" y="0.5" width="99" height="99" stroke="#2B2B2B"/>
<g clip-path="url(#clip1_0_213)">
<path fill-rule="evenodd" clip-rule="evenodd" d="M88.6201 42.0381C94.5571 42.0381 99.387 46.9061 99.387 52.8938C99.387 58.8774 94.5571 63.7455 88.6201 63.7455H41.8071C34.3571 63.7455 28.2944 57.6327 28.2944 50.1194C28.2944 42.6061 34.3571 36.4933 41.8071 36.4933C43.1945 36.4933 44.5736 36.7086 45.9011 37.1331L46.769 37.4099L47.0741 36.5466C49.9353 28.4366 57.5812 22.9882 66.099 22.9882C76.5134 22.9882 85.1569 30.8542 86.2062 41.2875L86.3031 42.2534L87.2596 42.1344C87.7873 42.0688 88.2202 42.0381 88.6201 42.0381Z" fill="#C8D0D6"/>
<path fill-rule="evenodd" clip-rule="evenodd" d="M11.8942 53.3306C5.3368 53.3306 -0.000244141 58.6909 -0.000244141 65.2814C-0.000244141 71.8679 5.3368 77.2302 11.8942 77.2302H63.6093C71.8427 77.2302 78.5382 70.5002 78.5382 62.2281C78.5382 53.9561 71.8427 47.2261 63.6093 47.2261C62.0777 47.2261 60.5543 47.4639 59.0865 47.9294L58.13 48.2349L57.792 47.2835C54.6318 38.3552 46.184 32.3573 36.7736 32.3573C25.2688 32.3573 15.7202 41.019 14.5617 52.5043L14.4545 53.5685L13.3991 53.4373C12.8136 53.3635 12.3354 53.3306 11.8942 53.3306Z" fill="#EDF3F9"/>
</g>
</g>
<defs>
<clipPath id="clip0_0_213">
<rect width="100" height="100" fill="white"/>
</clipPath>
<clipPath id="clip1_0_213">
<rect width="100" height="56" fill="white" transform="translate(0 22)"/>
</clipPath>
</defs>
</svg>
