<svg width="100" height="100" viewBox="0 0 100 100" fill="none" xmlns="http://www.w3.org/2000/svg">
<g clip-path="url(#clip0_0_218)">
<rect opacity="0.0229128" x="0.5" y="0.5" width="99" height="99" stroke="#2B2B2B"/>
<g clip-path="url(#clip1_0_218)">
<path fill-rule="evenodd" clip-rule="evenodd" d="M62.9447 60.2432C62.9447 60.2432 60.2 67.7157 60.8936 70.5759C61.4681 72.9374 63.8638 74.3889 66.2383 73.8113C68.6191 73.2316 70.0745 70.8402 69.5021 68.4787C68.8085 65.6205 62.9447 60.2432 62.9447 60.2432Z" fill="#C0EAF9"/>
<path fill-rule="evenodd" clip-rule="evenodd" d="M79.9981 59.9265C79.9981 59.9265 77.2534 67.399 77.947 70.2571C78.5215 72.6208 80.9172 74.0722 83.2917 73.4946C85.6725 72.9149 87.1279 70.5236 86.5555 68.162C85.8619 65.3039 79.9981 59.9265 79.9981 59.9265Z" fill="#C0EAF9"/>
<path fill-rule="evenodd" clip-rule="evenodd" d="M14.3849 61.2008C14.3849 61.2008 11.6402 68.6733 12.3338 71.5314C12.9083 73.8951 15.3041 75.3465 17.6785 74.7689C20.0594 74.1892 21.5147 71.7978 20.9424 69.4363C20.2487 66.5782 14.3849 61.2008 14.3849 61.2008Z" fill="#C0EAF9"/>
<path fill-rule="evenodd" clip-rule="evenodd" d="M26.2075 77.4525C26.2075 77.4525 23.45 84.876 24.1394 87.7107C24.7075 90.0551 27.099 91.4917 29.4756 90.9141C31.8564 90.3344 33.316 87.96 32.7458 85.6156C32.0585 82.7787 26.2075 77.4525 26.2075 77.4525Z" fill="#C0EAF9"/>
<path fill-rule="evenodd" clip-rule="evenodd" d="M56.6876 76.4757C56.6876 76.4757 53.9302 83.8992 54.6195 86.7339C55.1876 89.0783 57.5791 90.5149 59.9557 89.9373C62.3366 89.3575 63.7961 86.9832 63.2259 84.6388C62.5387 81.8019 56.6876 76.4757 56.6876 76.4757Z" fill="#C0EAF9"/>
<path fill-rule="evenodd" clip-rule="evenodd" d="M74.7088 75.6429C74.7088 75.6429 71.9513 83.0664 72.6407 85.9011C73.2088 88.2456 75.6002 89.6821 77.9768 89.1045C80.3577 88.5248 81.8173 86.1505 81.2471 83.806C80.5598 80.9692 74.7088 75.6429 74.7088 75.6429Z" fill="#C0EAF9"/>
<path fill-rule="evenodd" clip-rule="evenodd" d="M28.3457 65.8844H42.3734L41.633 63.8234C40.2947 60.0978 39.0798 56.7217 38.6968 55.6646C38.0585 53.8998 38.033 52.5272 38.6266 51.7003C39.1117 51.0225 39.8819 50.8818 40.0606 50.8818H44.3074C46.9691 50.8818 48.5947 53.5396 49.1755 55.8138C49.3564 56.5235 49.567 57.3398 49.7968 58.2328C50.7223 61.822 51.9904 66.739 52.8713 70.5733C53.4947 73.2865 52.8798 74.4225 52.5862 74.7849C52.3138 75.1216 51.9351 75.2836 51.4266 75.2836H36.8287L41.9393 89.879C42.1755 90.5504 42.1393 90.9212 42.0968 91.0385C41.9032 91.0662 41.2074 90.9063 40.5798 90.0048C37.6074 85.7314 30.1159 74.6804 26.8457 69.6483C26.0542 68.4292 25.8032 67.4253 26.1393 66.82C26.4457 66.2701 27.3521 65.8844 28.3457 65.8844Z" fill="#F9C900"/>
<path fill-rule="evenodd" clip-rule="evenodd" d="M88.073 33.89C94.2006 33.89 99.1857 38.9498 99.1857 45.1734C99.1857 51.3926 94.2006 56.4524 88.073 56.4524H39.756C32.0666 56.4524 25.8091 50.0989 25.8091 42.2896C25.8091 34.4804 32.0666 28.1269 39.756 28.1269C41.1879 28.1269 42.6113 28.3507 43.9815 28.7919L44.8772 29.0796L45.1921 28.1823C48.1453 19.7528 56.0368 14.0898 64.8283 14.0898C75.5772 14.0898 84.4985 22.2657 85.5815 33.11L85.6815 34.1138L86.6687 33.9902C87.2134 33.922 87.6602 33.89 88.073 33.89Z" fill="#EDF3F9"/>
<path fill-rule="evenodd" clip-rule="evenodd" d="M12.2764 31.6774C5.50833 31.6774 -0.000183105 37.2488 -0.000183105 44.0989C-0.000183105 50.9448 5.50833 56.5182 12.2764 56.5182H65.653C74.1509 56.5182 81.0615 49.5232 81.0615 40.9253C81.0615 32.3275 74.1509 25.3324 65.653 25.3324C64.0722 25.3324 62.4998 25.5797 60.9849 26.0635L59.9977 26.381L59.6488 25.3921C56.3871 16.1122 47.6679 9.87805 37.9551 9.87805C26.0807 9.87805 16.2253 18.8808 15.0296 30.8185L14.919 31.9247L13.8296 31.7883C13.2253 31.7115 12.7317 31.6774 12.2764 31.6774Z" fill="#C8D0D6"/>
</g>
</g>
<defs>
<clipPath id="clip0_0_218">
<rect width="100" height="100" fill="white"/>
</clipPath>
<clipPath id="clip1_0_218">
<rect width="100" height="83" fill="white" transform="translate(0 9)"/>
</clipPath>
</defs>
</svg>
