<svg width="100" height="100" viewBox="0 0 100 100" fill="none" xmlns="http://www.w3.org/2000/svg">
<g clip-path="url(#clip0_0_847)">
<rect opacity="0.0229128" x="0.5" y="0.5" width="99" height="99" stroke="#2B2B2B"/>
<path fill-rule="evenodd" clip-rule="evenodd" d="M50.5777 44.0602C59.2094 44.0668 66.5067 51.3706 66.5 60C59.5 60 59.1317 60.0067 50.5 60C41.8683 59.9933 41 60 35 60C35.0067 51.3706 41.946 44.0535 50.5777 44.0602Z" fill="#F9C900"/>
<path fill-rule="evenodd" clip-rule="evenodd" d="M30.364 53.656C30.364 53.8362 30.3417 54.0187 30.295 54.2011C29.9923 55.3738 28.797 56.0792 27.6262 55.7766L17.9507 53.2866C16.7777 52.9862 16.0721 51.7912 16.3748 50.6208C16.6753 49.4481 17.8705 48.7427 19.0435 49.0453L28.7191 51.5353C29.7074 51.789 30.364 52.6791 30.364 53.656" fill="#F9C900"/>
<path fill-rule="evenodd" clip-rule="evenodd" d="M35.9404 42.9892C35.9404 43.5366 35.7356 44.0862 35.3238 44.5112C34.4825 45.379 33.0936 45.4035 32.2255 44.5602L25.0473 37.613C24.1792 36.7719 24.1547 35.3834 24.9983 34.5155C25.8396 33.6455 27.2263 33.6232 28.0966 34.4644L35.2726 41.4137C35.7178 41.8432 35.9404 42.4151 35.9404 42.9892" fill="#F9C900"/>
<path fill-rule="evenodd" clip-rule="evenodd" d="M46.1198 36.8985C46.1198 37.8776 45.4565 38.7699 44.4638 39.0192C43.2908 39.3151 42.1 38.6031 41.804 37.4304L39.3623 27.744C39.0662 26.5691 39.7785 25.3808 40.9515 25.0849C42.1245 24.7889 43.3153 25.501 43.6113 26.6737L46.053 36.36C46.0975 36.5403 46.1198 36.7205 46.1198 36.8985" fill="#F9C900"/>
<path fill-rule="evenodd" clip-rule="evenodd" d="M60.789 27.9262C60.789 28.1109 60.7645 28.2978 60.7155 28.4825L58.1759 38.1444C57.8687 39.3126 56.6713 40.0136 55.5005 39.7043C54.3297 39.3972 53.6308 38.1978 53.938 37.0296L56.4776 27.3699C56.7848 26.1995 57.9845 25.5007 59.1553 25.8078C60.1391 26.0659 60.789 26.9538 60.789 27.9262" fill="#F9C900"/>
<path fill-rule="evenodd" clip-rule="evenodd" d="M76.6779 36.267C76.6779 36.8789 76.422 37.4864 75.9256 37.9181L68.3868 44.4758C67.4742 45.268 66.0898 45.1723 65.2952 44.26C64.5006 43.3476 64.5963 41.9635 65.5111 41.1691L73.0477 34.6137C73.9625 33.8193 75.3447 33.9149 76.1393 34.8273C76.5021 35.2434 76.6779 35.7574 76.6779 36.267" fill="#F9C900"/>
<path fill-rule="evenodd" clip-rule="evenodd" d="M84.4471 50.8864C84.4471 51.8477 83.8083 52.7289 82.8357 52.9959L73.2001 55.6395C72.0338 55.9599 70.8274 55.2723 70.5069 54.1063C70.1864 52.9381 70.8742 51.7343 72.0405 51.4138L81.676 48.7703C82.8423 48.4521 84.0487 49.1374 84.3692 50.3034C84.4227 50.4993 84.4471 50.6951 84.4471 50.8864" fill="#F9C900"/>
<rect x="16" y="60" width="69" height="8" rx="4" fill="white"/>
</g>
<defs>
<clipPath id="clip0_0_847">
<rect width="100" height="100" fill="white"/>
</clipPath>
</defs>
</svg>
